<?xml version="1.0" encoding="utf-8"?>
<!-- Generator: Adobe Illustrator 17.0.0, SVG Export Plug-In . SVG Version: 6.00 Build 0)  -->
<!DOCTYPE svg PUBLIC "-//W3C//DTD SVG 1.1//EN" "http://www.w3.org/Graphics/SVG/1.1/DTD/svg11.dtd">
<svg version="1.1" id="Слой_1" xmlns="http://www.w3.org/2000/svg" xmlns:xlink="http://www.w3.org/1999/xlink" x="0px" y="0px"
	 width="35px" height="71.547px" viewBox="0 0 35 71.547" enable-background="new 0 0 35 71.547" xml:space="preserve">
<g>
	<path id="Facebook" fill="#29265B" d="M7.701,14.285c0,1.789,0,9.781,0,9.781H0.238v11.959h7.463v35.541h15.328V36.028h10.287
		c0,0,0.962-5.735,1.43-12.006c-1.339,0-11.659,0-11.659,0s0-6.956,0-8.178c0-1.221,1.671-2.866,3.322-2.866
		c1.648,0,5.129,0,8.351,0c0-1.627,0-7.254,0-12.45c-4.302,0-9.199,0-11.356,0C7.321,0.528,7.701,12.499,7.701,14.285z"/>
</g>
</svg>
