<?xml version="1.0" encoding="utf-8"?>
<!-- Generator: Adobe Illustrator 17.0.0, SVG Export Plug-In . SVG Version: 6.00 Build 0)  -->
<!DOCTYPE svg PUBLIC "-//W3C//DTD SVG 1.1//EN" "http://www.w3.org/Graphics/SVG/1.1/DTD/svg11.dtd">
<svg version="1.1" id="Слой_1" xmlns="http://www.w3.org/2000/svg" xmlns:xlink="http://www.w3.org/1999/xlink" x="0px" y="0px"
	 width="72px" height="71.514px" viewBox="0 0 72 71.514" enable-background="new 0 0 72 71.514" xml:space="preserve">
<g>
	<path fill="#3D3D3B" d="M67.248,18.665c-3.2-5.582-7.541-10-13.022-13.258c-5.484-3.257-11.468-4.886-17.96-4.886
		S23.787,2.15,18.306,5.408c-5.484,3.257-9.822,7.676-13.022,13.258c-3.2,5.582-4.798,11.676-4.798,18.283
		c0,7.936,2.275,15.076,6.826,21.413c4.55,6.34,10.428,10.726,17.635,13.163c0.838,0.16,1.461,0.047,1.864-0.332
		c0.403-0.379,0.605-0.853,0.605-1.421c0-0.095-0.009-0.948-0.024-2.561c-0.015-1.614-0.024-3.02-0.024-4.22l-1.07,0.19
		c-0.683,0.127-1.545,0.181-2.585,0.166s-2.12-0.124-3.238-0.332c-1.118-0.204-2.159-0.678-3.122-1.421s-1.646-1.715-2.049-2.917
		l-0.465-1.093c-0.31-0.725-0.799-1.534-1.467-2.419c-0.668-0.885-1.345-1.487-2.028-1.803l-0.325-0.237
		c-0.218-0.157-0.42-0.349-0.605-0.569c-0.185-0.222-0.325-0.441-0.42-0.663c-0.092-0.222-0.015-0.403,0.233-0.548
		c0.247-0.142,0.698-0.213,1.351-0.213l0.93,0.142c0.62,0.127,1.39,0.506,2.305,1.137c0.915,0.634,1.67,1.454,2.26,2.467
		c0.716,1.297,1.577,2.286,2.585,2.964c1.008,0.681,2.028,1.019,3.05,1.019c1.026,0,1.911-0.08,2.657-0.237
		c0.745-0.157,1.443-0.397,2.096-0.711c0.28-2.12,1.041-3.749,2.284-4.886c-1.771-0.19-3.361-0.474-4.777-0.853
		c-1.413-0.379-2.872-0.995-4.38-1.851c-1.506-0.853-2.758-1.913-3.751-3.177s-1.81-2.926-2.445-4.981
		c-0.635-2.055-0.954-4.427-0.954-7.113c0-3.826,1.229-7.083,3.68-9.772c-1.148-2.878-1.041-6.103,0.325-9.674
		c0.901-0.284,2.236-0.071,4.008,0.64c1.771,0.711,3.068,1.321,3.891,1.827c0.823,0.506,1.482,0.933,1.98,1.279
		c2.889-0.823,5.871-1.232,8.946-1.232s6.056,0.412,8.946,1.232l1.771-1.137c1.211-0.758,2.639-1.454,4.285-2.088
		c1.646-0.631,2.904-0.805,3.775-0.521c1.398,3.574,1.521,6.799,0.373,9.674c2.454,2.689,3.683,5.946,3.683,9.772
		c0,2.689-0.319,5.067-0.954,7.137c-0.635,2.073-1.458,3.731-2.469,4.981s-2.269,2.301-3.775,3.154
		c-1.506,0.853-2.967,1.469-4.38,1.851c-1.413,0.379-3.006,0.666-4.774,0.856c1.613,1.421,2.421,3.666,2.421,6.734v10.006
		c0,0.569,0.194,1.042,0.581,1.421c0.388,0.379,1.002,0.489,1.84,0.332c7.207-2.434,13.084-6.823,17.635-13.16
		c4.55-6.34,6.826-13.477,6.826-21.413C72.045,30.341,70.447,24.247,67.248,18.665z"/>
</g>
</svg>
