<?xml version="1.0" encoding="utf-8"?>
<!-- Generator: Adobe Illustrator 17.0.0, SVG Export Plug-In . SVG Version: 6.00 Build 0)  -->
<!DOCTYPE svg PUBLIC "-//W3C//DTD SVG 1.1//EN" "http://www.w3.org/Graphics/SVG/1.1/DTD/svg11.dtd">
<svg version="1.1" id="Слой_1" xmlns="http://www.w3.org/2000/svg" xmlns:xlink="http://www.w3.org/1999/xlink" x="0px" y="0px"
	 width="71.525px" height="71px" viewBox="0 0 71.525 71" enable-background="new 0 0 71.525 71" xml:space="preserve">
<g>
	<g>
		<g>
			<rect x="0.594" y="22.268" fill="#0576B9" width="15.877" height="48.812"/>
		</g>
	</g>
	<g>
		<g>
			<path fill="#0576B9" d="M59.716,22.842c-0.168-0.052-0.327-0.11-0.507-0.159c-0.212-0.049-0.426-0.09-0.643-0.125
				c-0.843-0.168-1.765-0.29-2.849-0.29c-9.256,0-15.127,6.732-17.063,9.331v-9.331H22.777V71.08h15.877V44.455
				c0,0,12-16.712,17.063-4.437c0,10.957,0,31.062,0,31.062h15.874V38.143C71.592,30.768,66.538,24.621,59.716,22.842z"/>
		</g>
	</g>
	<g>
		<g>
			<circle fill="#0576B9" cx="8.36" cy="7.849" r="7.766"/>
		</g>
	</g>
</g>
</svg>
