<?xml version="1.0" encoding="utf-8"?><!DOCTYPE svg PUBLIC "-//W3C//DTD SVG 1.1//EN" "http://www.w3.org/Graphics/SVG/1.1/DTD/svg11.dtd"><svg width="72" height="380" viewBox="0 0 72 380" xmlns="http://www.w3.org/2000/svg" xmlns:xlink="http://www.w3.org/1999/xlink"><svg width="19.027" height="11.416" viewBox="0 0 19.027 11.416" id="11" xmlns="http://www.w3.org/2000/svg"><path opacity=".9" fill="#FFF" d="M17.124 0L9.513 7.611 1.903 0 0 1.903l7.611 7.61 1.902 1.903 1.903-1.903 7.611-7.61z"/></svg><svg width="27.215" height="27.215" viewBox="0 0 27.215 27.215" id="close" y="12" xmlns="http://www.w3.org/2000/svg"><path fill="#B7CBD9" d="M27.215 6.532L20.683 0l-7.076 7.076L6.532 0 0 6.532l7.076 7.075L0 20.683l6.532 6.532 7.075-7.076 7.076 7.076 6.532-6.532-7.076-7.076z"/></svg><svg width="35" height="71.547" viewBox="0 0 35 71.547" id="facebook" y="40" xmlns="http://www.w3.org/2000/svg"><path fill="#29265B" d="M7.701 14.285v9.781H.238v11.959h7.463v35.541h15.328V36.028h10.287s.962-5.735 1.43-12.006H23.087v-8.178c0-1.221 1.671-2.866 3.322-2.866h8.351V.528H23.404C7.321.528 7.701 12.499 7.701 14.285z"/></svg><svg width="19.027" height="11.416" viewBox="0 0 19.027 11.416" id="first" y="112" xmlns="http://www.w3.org/2000/svg"><path opacity=".3" fill="#010202" d="M17.124 0L9.513 7.611 1.903 0 0 1.903l7.611 7.61 1.902 1.903 1.903-1.903 7.611-7.61z"/></svg><svg width="34.757" height="20.854" viewBox="0 0 34.757 20.854" id="footerImag" y="124" xmlns="http://www.w3.org/2000/svg"><path fill="#010202" d="M3.476 20.854L17.378 6.951l13.903 13.903 3.476-3.476L20.854 3.476 17.378 0l-3.475 3.476L0 17.378z"/></svg><svg width="72" height="71.514" viewBox="0 0 72 71.514" id="git" y="145" xmlns="http://www.w3.org/2000/svg"><path fill="#3D3D3B" d="M67.248 18.665c-3.2-5.582-7.541-10-13.022-13.258C48.742 2.15 42.758.521 36.266.521S23.787 2.15 18.306 5.408c-5.484 3.257-9.822 7.676-13.022 13.258C2.084 24.248.486 30.342.486 36.949c0 7.936 2.275 15.076 6.826 21.413 4.55 6.34 10.428 10.726 17.635 13.163.838.16 1.461.047 1.864-.332a1.87 1.87 0 0 0 .605-1.421l-.024-2.561a466.91 466.91 0 0 1-.024-4.22l-1.07.19c-.683.127-1.545.181-2.585.166s-2.12-.124-3.238-.332c-1.118-.204-2.159-.678-3.122-1.421s-1.646-1.715-2.049-2.917l-.465-1.093c-.31-.725-.799-1.534-1.467-2.419s-1.345-1.487-2.028-1.803l-.325-.237a3.368 3.368 0 0 1-.605-.569 2.71 2.71 0 0 1-.42-.663c-.092-.222-.015-.403.233-.548.247-.142.698-.213 1.351-.213l.93.142c.62.127 1.39.506 2.305 1.137a7.62 7.62 0 0 1 2.26 2.467c.716 1.297 1.577 2.286 2.585 2.964 1.008.681 2.028 1.019 3.05 1.019 1.026 0 1.911-.08 2.657-.237a9.194 9.194 0 0 0 2.096-.711c.28-2.12 1.041-3.749 2.284-4.886-1.771-.19-3.361-.474-4.777-.853-1.413-.379-2.872-.995-4.38-1.851-1.506-.853-2.758-1.913-3.751-3.177s-1.81-2.926-2.445-4.981c-.635-2.055-.954-4.427-.954-7.113 0-3.826 1.229-7.083 3.68-9.772-1.148-2.878-1.041-6.103.325-9.674.901-.284 2.236-.071 4.008.64 1.771.711 3.068 1.321 3.891 1.827s1.482.933 1.98 1.279c2.889-.823 5.871-1.232 8.946-1.232s6.056.412 8.946 1.232l1.771-1.137c1.211-.758 2.639-1.454 4.285-2.088 1.646-.631 2.904-.805 3.775-.521 1.398 3.574 1.521 6.799.373 9.674 2.454 2.689 3.683 5.946 3.683 9.772 0 2.689-.319 5.067-.954 7.137-.635 2.073-1.458 3.731-2.469 4.981s-2.269 2.301-3.775 3.154c-1.506.853-2.967 1.469-4.38 1.851-1.413.379-3.006.666-4.774.856 1.613 1.421 2.421 3.666 2.421 6.734v10.006c0 .569.194 1.042.581 1.421.388.379 1.002.489 1.84.332 7.207-2.434 13.084-6.823 17.635-13.16 4.55-6.34 6.826-13.477 6.826-21.413-.007-6.61-1.605-12.704-4.804-18.286z"/></svg><svg width="71.525" height="71" viewBox="0 0 71.525 71" id="linkid" y="217" xmlns="http://www.w3.org/2000/svg"><path fill="#0576B9" d="M.594 22.268h15.877V71.08H.594zM59.716 22.842c-.168-.052-.327-.11-.507-.159a9.734 9.734 0 0 0-.643-.125 14.26 14.26 0 0 0-2.849-.29c-9.256 0-15.127 6.732-17.063 9.331v-9.331H22.777V71.08h15.877V44.455s12-16.712 17.063-4.437V71.08h15.874V38.143c.001-7.375-5.053-13.522-11.875-15.301z"/><circle fill="#0576B9" cx="8.36" cy="7.849" r="7.766"/></svg><svg width="38.57" height="27.256" viewBox="0 0 38.57 27.256" id="menu" y="288" xmlns="http://www.w3.org/2000/svg"><g fill="#3D3D3B"><path d="M0 0h38.57v5.51H0zM0 10.626h38.57v5.51H0zM0 21.746h38.57v5.51H0z"/></g></svg><svg width="38.57" height="27.256" viewBox="0 0 38.57 27.256" id="menuwhite" y="316" xmlns="http://www.w3.org/2000/svg"><g fill="#FFF"><path d="M0 0h38.57v5.51H0zM0 10.626h38.57v5.51H0zM0 21.746h38.57v5.51H0z"/></g></svg><svg width="19.027" height="11.416" viewBox="0 0 19.027 11.416" id="oneWork" y="344" xmlns="http://www.w3.org/2000/svg"><path opacity=".3" fill="#FFF" d="M17.124 0L9.513 7.611 1.903 0 0 1.903l7.611 7.61 1.902 1.903 1.903-1.903 7.611-7.61z"/></svg><svg width="19.027" height="11.416" viewBox="0 0 19.027 11.416" id="second" y="356" xmlns="http://www.w3.org/2000/svg"><path opacity=".6" fill="#010202" d="M17.124 0L9.513 7.611 1.903 0 0 1.903l7.611 7.61 1.902 1.903 1.903-1.903 7.611-7.61z"/></svg><svg width="19.027" height="11.416" viewBox="0 0 19.027 11.416" id="third" y="368" xmlns="http://www.w3.org/2000/svg"><path opacity=".9" fill="#010202" d="M17.124 0L9.513 7.611 1.903 0 0 1.903l7.611 7.61 1.902 1.903 1.903-1.903 7.611-7.61z"/></svg></svg>